<?xml version="1.0" encoding="UTF-8"?>
<svg id="Layer_2" data-name="Layer 2" xmlns="http://www.w3.org/2000/svg" viewBox="0 0 181.7 176.09">
  <defs>
    <style>
      .cls-1 {
        fill: #dfa625;
      }
    </style>
  </defs>
  <g id="Layer_1-2" data-name="Layer 1">
    <g id="qiDSkB">
      <path class="cls-1" d="M148.16.53c6.45,1.31,6.45,11.02.53,13.53-3.09,1.31-6.17.48-9.28.81-6.25.66-13.14,3.62-14.77,10.18-1.26,5.04,3.04,8.59,6.68,11.17,18.86,13.34,53.65,21,50.13,52-2.42,21.29-32.72,53.83-46.56,70.73-9.36,11.43-10.06,15.63-26.8,16.71-9.93.64-39.59,1.1-47.7-2.7-6.99-3.27-11.52-11.24-16.03-16.88C30.74,139.03,1.91,108.53.1,86.76c-1.57-18.91,15.36-31.39,29.89-39.62,8.74-4.95,40.1-16.24,21.76-29-7.14-4.97-15.09-1.49-20.18-4.76-2.81-1.81-3.59-6.23-2.7-9.29C29.31,2.56,33.75.07,35.12,0c.26-.01,1.4.57,2.35.55,31.82-.51,63.81.09,95.57.4,4.28.04,10.99-1.26,15.13-.42Z"/>
    </g>
  </g>
</svg>