<?xml version="1.0" encoding="UTF-8"?>
<svg id="Layer_2" data-name="Layer 2" xmlns="http://www.w3.org/2000/svg" viewBox="0 0 1003.13 196.77">
  <g id="Layer_1-2" data-name="Layer 1">
    <g>
      <path d="M70.51,194.11l.04-2.22,1.93-.44.58-.69,2.21-.34.78-.8,4.72-.4.54-.71,2.21-.36,1.18-1.16,1.68-.4.75-.84,1.89-.64c4.19-4.13,9.79-7.7,12.41-13.04,1.9-.88.72-4.07.98-5.91l-1.15-2.39-1.14-.1-.6-.69-1.78-.4-6.27.28-1.8-.86,1.78-1.67c3.6-.31,7.67-1.21,10.86.84,1.66,1.87,2.46,3.73,3.5,5.79v3.98c-1.66,1.58-2.22,4.39-4.22,5.88l-.27,1.13,4.99-.39.54-.71,1.9-.28.55-.76,2.75-.81,2.19-1.8.87-.24.19-.9c2.46-.44,5.56-6.44,6.25-1.12l-.56.59-1.57.49-.5,1.57-.97.71-1.26,1.96,1.04,1.29h2.46s2.39-2.35,2.39-2.35l.53-1.84,1.09-1.62,1.03-.66.46-1.5,4.25-4.51h1.3s.88,1.06.88,1.06l-.43,2.5-.66.62-.77,1.77.14,2.82,1.91.38,2.89-.44.6-.68c6.54-2.05,9.13-8.62,14.97-12.17,4.84-5.99,13.18-7.32,18.11-12.87l.52-1.54,1.49-.85c.53-2.02,6.79-1.28,7.29.09l.15,1.21-1.07,1.29-4.3.81-.59.69-1.88.49c-.65,1.85-1.88,3.35-1.96,5.55l3.89.45,1.26,1.15.1,1.51-.71.56-.38,1.32-.91.69-.36.96-.95.36c-.9,1.47-3.61,1.67-3.05,3.48l2.86.53,2.37,2.41.25,2.49-.27,1.06-.69.6-.6,1.57-1.77.78-.75.84-1.89.28-.58.69-2.05.44-.58.69-5.06.81-.82.75h-4.12c-1.03-1.57-2.06-4.45.45-5.16,3.76-3.47.17,3.34,3.2,2.49l.77-.8,2.59-.33.79-.79,3.32-.73.59-.69,1.67-.43,1.9-1.55.26-1.9-1.05-.99-5.65-.84-.38-3.28,1.53-.45,2.03-2.19,1.52-.55,1.95-2.37-.59-.81-1.7-.46-1.43-1.38-.38-1.43.18-2.09-.54-.7-.27.74-1.7.39-2.06,1.86c-10.76,4.35-15.52,18.54-27.22,21.07l-.56.7h-2.1s-1.92-1.73-1.92-1.73l-.87-.22-.74-1.44-1.63-.34-.26,1.41-.87.73-.6,1.59-2.52,2.53-1.29.42-3.56-.32-1.44-.96c-.7-3.31-2.55-2.72-4.39-.53l-3.93.79-.57.69-2.89.42-5.11-.25-2.47,1.87-2.53,2.72-2.17.95-2.09,1.84-2.08.75-.92.82-.1,1.03c.38.12.92.14,1.22.39,3.58,2.87,10.29,3.49,15.03,3.38l.53-.72,3.18-.43,3.3-2.21.32.68.42.08.03.54-1.82,2.02-2.76.84c-4.72,3.43-10.46,1.18-15.81.7l-.55-.71-1.72-.47-.92-1.05-1.32-.38c-2.48-3.12-6.08.55-9.02.37l-.26.75h-5.26Z"/>
      <path d="M527.35,14l1.45,2.11.78.52c1.05,1.8,1.74,4.44,3.76,5.25l.52,2.6.68.58.36,1.81c.48,4.7.39,9.5.04,14.22-.32,4.38-3.27,9.95-.4,14l.31,1.11-.34,1.55h-2.91s-.79-3.14-.79-3.14c-.01-3.79-.2-7.58.75-11.27.42-7.31,2.82-16.25-2.6-22.27l-.92-2.18-2.37-2.4h-.98c-.36,1.06-1.59.76-2.04,1.23-.18.19-.39,1.19-.72,1.69-3.1,4.66-5.67,9.85-5.01,15.97l-.77.8v7.94s.76.81.76.81l.43,3.19.7.56-.04,1.55-1.63.44-1.47-.34-.48-2.21-.99-1.07-1.36-.35-.68-.91-1.68-.41-.55-.71-4.45-.04-.83.75-2.25.52-.8,1.32-.81,3.15-1.41,1.41-1.68.3-1.11-.31-.56-.71-3.82-.42.34-2.7,3.66-3.25,2.08-.49,1.38-1.3v-2.11s-.73-.52-.73-.52l-.33-2.98-.76-.83-.95-2.17-1.62-1.36-.06-1.36,1.64-.43,1.24.25,1.57,1.93.38,1.32.75.53.58,1.59.19,5,.83.91,2.27.11.79-.77h5.68s3.17,1.9,3.17,1.9l-.03-5.47.81-1.08.36-8.96.72-.54.72-3.33c1.75-3.34,3.41-6.74,6.24-9.54l1.59-1.11,3.39.1ZM497.78,46.93l-1.02.75h-1.23s0,1.49,0,1.49l1.4-.12.73-.73.12-1.4Z"/>
      <path d="M768.08,24.07l-.35,6.92.36,2.63,1.15,1.86,1.2.23.85.74,1.44-.04.55-.7,2.09-.48,1.87-2.04,1.66-.61,1.56-2.45.42-2.04,1.05-.91.45-3.13c1.11,0,.73,1.23,2.25.75l-.38,10.26-.74.51-.39,5.5-.77.79v7.87s-.75,2.93-.75,2.93l-1.13,1.57-3.11,2.55-2.98.33-.52.73c-4.35.45-8.67,1.09-13.06.75-6.91-.52-13.36-7.25-20.95-3.12l-1.4.12.36-1.98,1.69-1.43,10.07.04.55.71,2.42.44.59.68,4.3.81.54.71,3.66.4,6.7-.4.51-.74,4.96-.63,1.09-.85,1.88-.49.48-1.5,1.02-1.3-.17-2.67-.65-.52-3.13-.43-.83-.91-.05-1.03,1.06-1.31,1.31-.41.4-.6,2-.46,1.25-1.81.26-4.5-.25-1.24-4.05,3.34-3.16.82-.55.71h-2.86s-.71-.86-.71-.86l-2.18-.44-.78-2.53-.71-.55-.39-8.94.64-1.72,2.33.08Z"/>
      <path d="M558.98,46.55l.24-.76,2.15-.05c1.84-1.23,2.63-3.09,3.98-4.71v-3.23s-.72-.56-.72-.56l-.45-1.54-4.2-.05-.87,1.08-2.02.06v-1.61s2.53-2.13,2.53-2.13l5.56-.05,1.54,1.28.53,1.85.71.55.24,3.24-.26,1.84-.69.58-.41,1.68c-1.03.83-1.37,1.73-2.21,2.76-1.3,1.59,2.22,2.67,3.54,2.78l9.71-.04,1.81-.36.6-.68,1.74-.45c.53-.69.65-1.22,1.65-1.13l-.33-3.42-2.55-2.43-.07-2.75h1.61s1.53,1.74,1.53,1.74l.98.36,4.37-.19.8-.77,5.12-.39.52-.73,5.82-.8,1.66-2.19,1.78.32.53,1.44-.06,1.24-1.28,1.35-.48,1.72-.69.58-.44,2.05-.7.55-.04,1.44c1.12,1.37,1.5,3.77,3.76,3.57l.02,2.24-2.54-.1-2.49-2.56-.63-1.94-.71-.55v-1.73s.73-.51.73-.51l.38-4.25-4.6.4-.57.7-4.67.82-.57.7-3.85.4-.08,4.42-.85.46c-4.54,5.6-13.51,4.26-20.17,3.71l-1.63-1.08c-2.38-4.49-6.88,2.36-9.32-1.03-1.74.07-.79-1.75-1-3.11h6.01Z"/>
      <path d="M480.01,34.31l.87.88.05.67-.76.84-.42,3.58-.71.54-.77,7.05.54,10.74c.42,2.22,2.85,1.24,2.02,3.67-1.98.94-2.78,1.47-4.43-.6.17-1.26-.31-2.43-.39-3.65-.14-2.16.73-5.9-.73-7.22v-1.62s-1.22.38-1.22.38l-2.45,2.24-1.67.41-.81.78-2.6.33-.53.72h-2.11s-.54-.71-.54-.71l-2.43-.43-1.99-1.89-.67.05-.54.72-1.68.4-.87,1.07-1.7-.57-.72-2.57v-3.76s.43-1.63.43-1.63l1.93-.06,2.07,1.84,2.31.4.4-1.95,1.06-.9.05-2.58-.38-1.77-.88-.72c-.45-2.95-7.13-.36-8.08-1.49l-.05-1.27.37-.76,2.45-.55,4.46.03,1.47.42,1.34,1.29.55,1.12.9.77.39,2.24.8.78.05,1.05-.75.85-.81,3.17-1.62,1.8-.23.73,1.64,1.21,3.43.32,1.91-.33c3.61-1.73,6.06-3.91,8.01-7.46v-7.06s.36-1.43.36-1.43l1.36-.6,2.3.49ZM455.54,49.18v.38c.24-.13.24-.25,0-.38Z"/>
      <path d="M14.86,44.77c.14.08.21.58.5.8,1.74.24,1.09,2.31,2.85,2.95l.13,1.5.7.57.36,1.82.05,8.96c-.88,5.04-2,9.88-1.11,15.32l.71.55.44,2.04,2.31,2.83,2.28.08.56-.7,2.78-.82,2.01-1.85h.69s.96,1.03.96,1.03v1.77s-.82,1.62-.82,1.62c-.38.21-1.03.02-1.47.2-1.48.61-3.47,1.78-4.71,2.5h-2.48s-.52-.74-.52-.74l-1.52-.47c-.17-.28-.13-.75-.33-.98-3.28-3.77-4.29-8.91-3.91-14.14.31-5.93,2.57-12.56.43-18.12l-.88-2.99-1.98-.46-3.33.05-.9,1.06-1.68.4-.76.84-2.03.78-1.23,1.29-.37,1.72,2.02,1.38,2.57-.04.56-.7,2.1-.76.27-1.1,1.39-.15.08-.66h.36s.13.63.13.63c2.36.35.67,3.19-.73,4.19l-1.94.14-.68.99H3.16s-2.72-2.34-2.72-2.34l-.44-1.27.31-3.57,1.14-1.56,1.39-.94,1.71-.48,2.24-2.05,1.49-.5c.13-1.71,6.11-.93,6.56-.66Z"/>
      <path d="M100.83,48.55c.69.85,1.82,1.41,2.58,2.27.66.74.02,1.6,2.28,1.49l1.59,2.03.05,5.57-.77.8-.04,4.46.78.91-.75.26c-1,2.52-.2,7.22-.74,9.24-.09.32-.67.37-.89.7-2.89,4.39-4.47,5.22-10.13,5.2l-.44.75h-.74s-.48-.73-.48-.73l-1.74-.44-1.6-1.59-.53-1.84-.69-.59-.42-3.2-.73-.52v-4.74s.74-.51.74-.51l.42-4.7.68-.59c1.55-5.44,4.42-11.63,10.26-13.63l.49-.73.83.12ZM100.82,53.43c-2.09-.88-4.72,1.5-5.3,3.49-2.02,2.78-4.53,8.18-4.75,11.58-.12,1.93-.17,5.2.12,7.06.32,2.04,1.77,1.6,2.77,3.24l4.37-.35c1.01-1.38,3.22-.68,3.3-3.07,2.33-5.6,1.94-12.27,2.63-18.51l-.51-1.97-2.23-.88-.4-.6Z"/>
      <path d="M52.36,47.06l2.24,2.25.51,1.48.75.52.45,6.63,1.36,1.34,2.14.42,3.65-.43,1.63-1.08.69-1.03.88-.22c.9-1.35,1.26-3.22,2.34-4.29l.39-4.99,3.33.43.08,2.41-.77.79-.77,8.12-.72.53-.41,3.96-.7.56-.41,4.71-.71.54c-.39,2.43-.58,4.96-.42,7.43.22,3.47.49,5.74,4.63,5.04l.58-.69,2.22-.9.3-1.08-.68-.73-.27-1.09,1.35,1.08,1.97.1.42,1.62-.73,1.44c-.42.62-1.25.39-1.78.78-1.93,1.43-1.94,2.53-4.81,2.53s-3.8-1.53-5.45-3.31c.12-2.34-.77-5.16-.76-7.41.02-3.99,1.43-8.96,2.52-12.33l.12-1.39-2.33.41-.56.72-1.7.41-.83.75-2.95-.04-.55-.71-2.04-.44-1.58-1.13-.36-.96-1.72-1.91-.05-5.14-.72-1.91-1.6-.58-.28-.73h-.73s-.26.75-.26.75l-2.8-.22-.34-1.47.44-1.64,3.89-.42,1.94.5Z"/>
      <path d="M674.75,35.56l.6.39.21,1.6.66,1.4,2.24.51.55.71h3.49s-.06,1.46-.06,1.46l-2.77.46-4.76-.81-1.44-.97-.4-2.09-.7-.57-.59-3.49c-1.93-1.11-2.06.98-2.55,1.42-1.94,1.75-5.35,3.23-6.63,5.47l-1.77,1.11-.21,4.12-.85,1.78-2-1.74c-.14-1.35-.07-2.72-.06-4.07.01-1.65.92-4.53-.73-5.73l-.44-2.68-2.69.34-1,1.04-.02,1.2-2.25.21c-2.49,1.44-3.77,4.48-6.65,5.51l-.46,1.53-.94.65-.25,1.18-.69.57c-.16,2.37-.89,6.13,1.75,6.96.67,1.88,2.83,3.08,4.09,4.17,1.1.95,2.11,2.21,3.24,3.15l4.42.1v1.5s-3.5,0-3.5,0l-.52-.73c-2.08.18-3.58-.92-4.77-2.49-4.86-2.32-8.05-7.01-7.39-12.38l.75-.82.42-2.44c.12-.28.54-.32.73-.56,1.6-2.1,2.8-3.01,4.97-4.98,2.35-2.13,2.87-3.66,6.59-3.84l.57-1.68c1.4-.52,1.53-2.83,2.8-.89l3.01.87.49,1.88.7.56.43,3.44,1.65.05,2.21-2.1,3.46-2.18c1.75-1.71,2.78-2.57,3.87-4.65-.22-2.07,2.74-2.25,3.03-.64l.12,7.22Z"/>
      <path d="M896.04,16.64l1.39,1.04.94,1.39.43,1.67.95.99.17,2.03.73.52v3.23c-.84.71-1.29,1.76-2.1,2.49-.76.68-1.73.01-1.19,1.86,2.93,1.61,6.37.87,9.8.79l.55-.71,3.17-.82.59-.69,1.66-.43,1.06-.93-.39-1.09-2.21-.61.18-1.88,1.79-.31,2.61.37.53.72h2.86s.52-.73.52-.73l2.1-.09,1.52-.64.88-1.93,2.03-.19.38,1.15-.12,1.41-1.75,3.49-.04,7.79-.71.55-.49,1.89-.85.26-1.35-.42.03-2.89.77-.8-.03-6.97h-2.37s-.55.73-.55.73l-1.67.43-1.93,1.71-2.03.78-.76.84-1.67.43-.8.78-1.83.34-.56.7-4.03.41c-5.3,1.35-10.05-3.81-14.26-1.49l-4.62-.14-1.24-1.58.11-1.81.53-1.04,3.64-.34.25-.74.55-.02.44.75,4.39.33,1.82-.36,1.61-1.46.22-1.32-.82-4.41-.69-.59-.44-1.92-3.72-.04.43-2.58,3.59.07Z"/>
      <path d="M712.81,9.13c1.06.5,3.34,2.3,4.54,2.85,3.51,1.63,7.58,3.02,11.53,3.41,1.85.18,3.92-.63,5.23.78l6.36.02.56.56.06,1.64-9.97.39-6.29-.41-.55-.71-2.05-.44-.81-.78-2.21-.34-.58-.69-2.62-.67c-.65-1.16-1.56-.82-2.43-1.26-.54-.27-3.96-2.57-4.22-2.61-2.05-.39-8.91-.16-11.27.01-1.09.08-3.01.2-3.49,1.09l-2.83.76-1.04,3.12-.7.56c-.41,6.12-.56,11.66-1.53,17.55l.39,9.97-1.45-.05-.46-1.53-.75-.84-.36-5.29c1.12-6.32.56-13.19,2.26-19.21l.76-4.73,3.67-3.25,3.33-.73,13.85-.05c.98.21,2.19.46,3.08.87Z"/>
      <path d="M327.7,59.32h3.87s.51-.74.51-.74c3.21.49,5.32-1.24,8.09-1.89l2.51-2.17.43-4.69c.57-.38.8-.57.78-1.33l2.96-.07-.39,5.74-.71.55-.43,1.68-.75.83.03,8.2,1.4,1.4,3.49.22v1.66s-2.38,0-2.38,0l-.8.77-2-.13-1.21-1.32-.41-1.67-.71-.55-.05-5.9-.35-1.34h-.89s-2.02,1.85-2.02,1.85l-4.31.78-.54.72-4,.36-1.45-.35-.86-1.11h-.74s-2.19,3.24-2.19,3.24l-1.67.95.04,1.7,1.77,1.11.84,1.51,1.5.46.68.92c2.46.32.89,3.96-1.17,2.67-.23-.15-.29-.7-.48-.83-1.26-.85-2.63-1.65-3.74-2.76-.78-1.76-2.94-4.01-4.29-1.47l-1.56-.06-.44-1.64.2-1.69,1.21-.66,2.47-.09c2.14-1.23,3.3-2.94,4.8-5.04l.28-4.47-1.46-1.52-3.31-1.38.08-1.36.9-.84h.98s.55.71.55.71l1.83.36,1.18,1.16,1.32.35.63.97v6.2Z"/>
      <path d="M191.68,51.18l.38.6,3.57.42,1.51,1.57.31,1.49c1.63,1.69,1.83,4.6,3.66,6.16l-.33,5.12-.85.74-1.63,3.22-1.38,1.44c-4.44,1.68-6.06,4.38-11.35,4.28-2.2-.04-3.95-.51-5.36-2.25-2.59-.34-1.81-2.49-3.42-3.69-1.4-6.38.63-12.69,5.15-16.96l2.05-.43.83-.75,1.83.04.5.74h1.01s.5-.75.5-.75c1.43-.02,1.7-1.64,3.02-1ZM193.53,54.96c-1.66-.55-3.15-.48-4.83-.1l-2.1,1.83-1.4.33-1.05-.3-.26-.75h-.73s-1.13,1.41-1.13,1.41l-.39,1.67-1.03.92c-.42,3.01-1.87,4.13-1.58,7.44.06.65.18,1.36.5,1.94l2.37,2.71,1.53,1.15h4.35s.55-.7.55-.7l2.05-.44.58-.69,1.72-.48.91-1.05,1.88-.46.45-1.54.75-.53.78-2.45.71-.55.02-2.85c-1.6-1.53-2.27-3.82-3.5-5.78l-1.14-.73Z"/>
      <path d="M129.36,51.18l.38.61,1.68.43.55.71,1.98.21,3.07,3.69.95.36c1.09,2.77,5.14,4.09,5.37,7.21.14,1.94-.11,5.02-2.13,5.54-1.3,3.24-5.43,6.2-8.86,6.31l-.56.7c-2.45.16-6.53,1.44-8.27-.7l-1.48-.5-.9-2.21-.67-.6-.42-5.08-.77-.79.04-3.33.71-.55.42-1.68,2.23-2.45.39-1.67,1.08-.89.44-1.37.72-.56c-.02-1.08.84-1.44,1.1-1.9.84-1.47-.13-2.09,2.93-1.46ZM130.86,54.93c-2.64-1.18-4.92,4.65-6.39,5.98l-.66,1.86-1.84,2.07v2.1s.76.79.76.79l.35,5.19c.63,1.69,9.23,1.14,10.96.25l6.27-5.9.27-2.35-.98-.99-.5-1.49-6.36-6.38-1.47-.53-.39-.61Z"/>
      <path d="M383.58,38.35l.1,2.7-2.23,1.22.35,1.74.69.57.43,3.66c-.9,2.8.48,7.06-1.15,9.09l-.03,3.33,1.9,1.95-.05,1.54-1.64.44-1.44-.35-.65-1.62c-1.27-.94-1.1-4.97.05-6.09v-10.47s-1.06-.55-1.06-.55l-2.05.31-2.43,2.16-3.21.49-.54.71-9.5.38v2s.73.53.73.53c.54,4.87.87,9.22,4.07,12.75l.45,2.75-2.58-.04c-.21-1.41-1.12-2.08-1.7-3.37-.27-.59-.85-1.87-1.04-2.35-1.64-4.27-.68-8.87-2.96-13.1-2.94-3.18,3.92-1.97,5.85-1.76l5.93-.41.54-.71,2.8-.42.92-1.04,1.72-.48.81-.78,1.82-.35.58-.7,1.21-.02-.41-2.82.38-1.53,1.24-.09,2.1.74Z"/>
      <path d="M165.36,52.34l1.16.71.36,1.04,1.64,1.01,1.55,2.49.32,2.61.73.27v.72s-.74.25-.74.25l-.38,8.13-4.98,5.03-2.23.52-.55.71-4.44.4-2.5-.41-2.54-2.89-.8-3.94-.72-.54v-3.61s.73-.52.73-.52l.04-3.28.73-2.55,6.24-6.61,4.07-.06,2.3.52ZM163.53,54.93l-1.15-.11c-1.3,1.57-4.35.33-4.86,3.27-1.9.68-2.79,4.24-2.92,6.28-.1,1.59.05,3.26.06,4.86l.37,1.43,1.73,2.56,3.97-.02c.75-1.12,3-1.66,4-2.45,1.3-1.03,1.6-2.46,2.64-3.44l.42-5.92c.25-2.33-1.57-5.33-3.87-5.85-.28-.14-.3-.57-.39-.61Z"/>
      <path d="M306.96,52.28l.4,1.52-1.03,1.3-.39,1.78.36,6.75-.75,5.94-.75.44v.73s.62.35.62.35c.36,2.87,3.45-1.98,3.15,1.55l-2.7,3.1-.84.09-.38-.6-.86-.24-.57-2.29-1.05-.89v-1.73s.75-.51.75-.51l.4-3.7-.59-1.29-2.97,3.03-.58,1.57-1.26,1.27-3.34.91-.56.71h-4.35s-.58-.69-.58-.69l-2.18-.94-2.29-2.19-.08-3.39,3.12-3.51c2.33-1.44,3.91-3.85,6.73-4.65.93-1.5,6.16-1.8,4.68,1.04l-3.05.53-.72.95-1.89.47c-.57,1.28-2.23,1.96-2.98,2.65-1.86,1.71-5.02,4.56-1.46,6.24.53,1.41,4.52,1.34,5.22.17l2.23-.52,1.5-1.5.46-1.51,3.27-3.02.51-1.48c2.58-2.03-.84-10.27,4.78-8.44Z"/>
      <path d="M955.1,63.07l-1.03.27-3.4,2.32-2.03.44-3.23,2.18-1.49.3-.59.73-1.49.51c-.26,1.11-2.88.94-3.75.74-.27-.06-.28-.58-.56-.71-1.22-.58-3.46-1.35-3.68-2.69l-1.57-.43-.43-1.94,1.55-3.52,1.58-.5.88-1.08,1.68-.4,1.29-1.02h3.23s1.1.32,1.1.32l.93.82.05,1.73c-1.97.77-.96,1.06-2.82-.25l-2.84.32-3.81,2.98-.22.75.74.27.86,1.5,3.78.84,3.33-.75c4.34-3.11,11.38-3.59,11.96-10.58l.71-.57.02-1.2,1.65-.03.98,1.71-.79,1.11.04,13.84.71.56.45,1.54,8.53.85.43,2.2-6.5-.38-.52-.73-3.19-.4-1.41-1.41-.4-2.06-.74-.27v-7.88Z"/>
      <path d="M902.14,54.47l-.21,1.14c-.33.09-.72.12-1,.34-1.62,1.26-2.36.69-3.57,1.84l-3.08.79,1.01,1.89,2.82.75,2.55,2.51v3.22s-.73.55-.73.55l-.48,1.88c-.96.41-1.72.27-2.21,1.36-2.95.61.64,2.15,1.15,3.15l.41,2.82.73.51v1s-.96,1.36-.96,1.36l-1.2.51-.33,1.03-2.09.4-.59.68-2.05.44-.55.7-1.82.04-2.34-1.88-2.79-.81c-.74-1.33-2.45-.41-3.22-1.81l-2.29-.45-.04-1.46,3.83.78.58.69,2.8.44.58.68,2.21.34.77.8h1.72s.78-.8.78-.8l1.82-.33.73-.87.96-.37.9-1.94-.9-1.57-.85-.25-.63-.72-2.61-.68-.58-.69-3.07-.43-.02-2.24,5.73-.4.41-.59,1.35-.36.54-.79c1.83-.03,1.68-3,.63-3.98-.46-.43-2.68-1.36-3.38-1.61l-2.65-3v-.7c1.08-1.04.86-1.62,2.87-1.66l.81-.78,2.05-.43,1.01-.93,2.47-.58,2.04.44Z"/>
      <path d="M717.76,21.44l.03,1.18-.85.9-2.38.44-.77.8h-1.8s-.18.76-.18.76l.74.27,1.04,1.61,5.08.77.56.7,2.3.45-.07,2.49-2.23,2.09-1.89.28-.54.73-1.24.38c1.54,1.84,4.25,1.75,4.16,4.96l.71.54v.99c-1.4,1.2-.87,2.83-3.46,2.91l-.55.71-3.66.4-4.48-.35-.53-2.12.36-1.24,1.56-.05.72.86,1.6.27,2.93-.41.58-.69.91-.12.69-.85-.42-1.48-1.59-1.2-3-.59c-.95-1.4-2.36-.66-1.69-2.87,1.87-.46,3-2.09,4.89-2.33l1.42-1.47c-1.38-.29-2.25-1.21-3.83-1.16l-1.57-1.7-1.85-.87-.66-2-.73-.48v-.71s1.17-1.5,1.17-1.5l1.37-.94,5.16-.81,2.01.45Z"/>
      <path d="M819.08,15.52l1.23.88.4,4.82-.44,2.52-.75.84-.73,5.21-.75.45v.93s2.33-.03,2.33-.03l.6-.69,1.68-.43.55-.71,1.75-.07.88-1.07,3.07-.6,1.41-1.4.53-1.85.71-.56.89-5.26.91-.83,1.93.03.34,1.64-.33,2.16-.69.58-.44,2.43-.68.58-.44,2.79-.78.8-.34,2.3.49,2.73,1.87.49,1.39,1.28-.6.98-2.19.37-1.98-.5c-1.25-1.88-2.14-3.39-1.59-5.92h-1.99s-.57.71-.57.71l-3.17.82-.58.69-2.05.44-.59.68-2.52.45-1.13-.4c-.58-1.6-2.59-3.74-.56-5.15l.79-5.46.68-.58.33-1.77-.37-1.98-2.18-.46v-1.12c1.41.26,2.55-2.31,3.66-1.76Z"/>
      <path d="M415.75,39.04l1.71,2.4,1.07.83.53,1.53,1.29.76,1.39.12,2.91-.8.59-.69,1.67-.43.61-.67,2.17-.95,1.25-1.28.74-3.29,1.68-.12,1.23,1.57.11,1.88c-2.55,2.4-2.31,5.88-2.25,9.39l-.77.8-.35,9.79.19.56,1.12.75.19,1.88-1.33.02c-1.8-1.44-2.53-.48-2.8-3.22l.34-10.16.77-.8v-4.62s-1.53.16-1.53.16l-1,.94-1.68.42-2.05,1.85h-4.71s-1.4-1.41-1.4-1.41l-.51-1.84-2-1.77c-.55-3.02-7.38,1.38-4.82-3.61h5.63Z"/>
      <path d="M751.57,25.56s-.03.47.16.6c.32.22.91-.02,1.02.34.25.84-.25,2.19-.25,3.04.01,4.72-.48,7.9-.88,12.34l-.37,1.13-2.03.11-.63-.88.39-4.44.77-.79-.03-7.72h-2.37s-.54.73-.54.73l-3.66.43-4.06-.4-.27-.73-.55-.02-.27.65-1.55.17c-1.32,1.87-2.88.82-3.21,3.54l.35,6.27.69.57.53,1.66.99.96.06,2.1-1.28.22-.55-.71c-3.14-.22-1.45-3.27-3.08-4.42l-.38-7.45.38-1.41,2.74-3.15,2.97-.91.83-.75,2.21.03.53.72,2.94.41,3.65-.41.56-.7,3.2-.42.29-.71h.71Z"/>
      <path d="M123.77,126.2l.91,2.84,2.75,2.12c3.98,4.11,10.96,6.94,16.79,7.38l.52.73,8.19.79,5.16-.81.55-.71,1.4-.04c.69,1.65,2.1,2.21-.62,2.66l-1.47,1.25-4.2.25-.5.74-.7.03-.81-.78-9.24-.77-.56-.7-3.58-.42-.53-.72-2.01-.18-1.58-.59-.79-.8-2.2-.32c-3.72-3.05-8.92-5.19-10.02-10.35l-.03-1.66,2.58.05Z"/>
      <path d="M967.77,15.52l.37.61,1.34.09.64.87-2.12,1.81-.54,2.22-.7.56-.78,5.85-.73.53-.03,2.95,2.74,3.83,1.74.15.62,1.45c1.7.51,5.72,3.84,6.82,4.04,2.33.44,8.27.26,10.84.1s4.16-.46,5.97-2.29l.96.24-.12,1.94-1.16.9c-6.14,1.07-14.42,3.89-20.22-.07l-.55-.74-1.32-.39-2.06-1.86-1.59-.6-1.68-1.89-.87-.22-.47-1.14c-3.33-2.7-.51-8.37-.8-12.12l.75-.82.43-2.8.83-.76.65-2.54,1.02.12Z"/>
      <path d="M923.06,53.44l1.91,1.46.4,2.41.8.77v2.85s-.8.77-.8.77l-.42,2.4-3.76,4.11c-3.59,1.22.19,3.49,1.76,4.86l3.14.99.47,2.91h-1.99s-2.07-1.84-2.07-1.84l-2.03-.43-3.38-3.85-2.89-.3-.78-2.84.1-.78,1.2-.87,1.43.04.56.7,1.11.31,1.68-.29,2.31-3.23.77-.53.62-3.17-.83-3.89-3.06-.04-.56.7-1.43.39c-1.93-.72-.5-2.66,1.12-2.57l.47-1.17,1.82-.36,2.32.5Z"/>
      <path d="M572.02,14.01l.37.61,4.69.8.59.68,2.05.44.56.7,2.59.34.81.78,3.16.8,1.31,1.88,2.44.77.59.68,2.41.43,2.27,1.96,2,.62c3.17-.72,1.75,2.2,3.4,3.52l.13,1.39-1.79-.25-.85-1.04-1.18-.26-.6-.68-2.46-.47-2.44-2.14-3.15-.83-2.1-1.83-1.32-.38-.73-.86-3-.68-.58-.69-2.41-.45-.59-.68-3.54-.82-.58-.68-3.35-.54-.85-.89-.02-2.35,2.15.12Z"/>
      <path d="M954.63,20.36l.45,1.26-.23,1.57-.4.46-1.94.41-.45,3.42-.7.56.09,1.9,1.77,1.22-.22.74-1.14,1.09-.99-.03-1.05-.56-.36-2.87-.73-.54v-1.22s-1.23.38-1.23.38l-3.56,2.99-3.29.42-3.48-.51-1.23-1.3-.59-1.58c-2.57-2.03-.81-5.76.87-7.91l1.55.06.37,3.09-1.08.87-.29.76.32,2.07,2.78,1.82,2.94-.04.58-.69,2.18-.94,5.04-5,.43-1.92,1.96-.41,1.63.43Z"/>
      <path d="M950.66.65l3.55.41,2.64,1.69.86,1.58.02,3.92-1.46-.05-.47-3.28c-.9-.2-1.22-.44-1.73-1.15l-7.06-.43-.9.24-1.1,1.21-.71,2.61.17,1.14,3.05,2.3,2.03.45c1.38,1.45,3.94,1.84,5.07,3.35,3.24,1-.33,2.89-1.69.78-3.24-.61-5-2.9-8.24-3.31l-2.32-2.28-.37-1.8.36-2.87.7-.56.42-1.68c1.46-1.37.75-1.92,3.17-2.16h3.32S950.22,0,950.22,0h.36s.07.65.07.65Z"/>
      <path d="M800.65,22.79l-.61.37-.17,3.54-.96.97.1,4.15,1.48,1.22c1.1,3.24,6.62,2.27,9.37,1.84l.82-.77,1.73-.32-.11,1.78-2.15,2.15c-.78.4-5.38.3-6.58.22-.73-.04-3.23-.24-3.71-.37-.38-.1-.14-.76-.35-1-2.91-2.13-3.59-5.12-3.28-8.62l.76-.81.78-6.6.7-.57.38-1.42h2.3s.3,1.06.3,1.06l-.82,3.17Z"/>
      <path d="M976.07,53.37l.46,2.39c.21,3.21-2.03,7.96-.41,10.21l.37,3.62.99.37c1.04,2.73,6.22-.12,5.55,3.29l-3.27.72-.27.74h-.36s-.28-.73-.28-.73l-1.76-.42c-1.18-1.76-3.08-2.44-4.01-4.26l-.38-5.28c.89-2.24-.4-5.05,1.19-6.73l-.02-2.23-.51-.25-.24-.73,1.01-.74,1.93.04Z"/>
      <path d="M48.87,80.6c2.04-.08,1.57,5.11.92,6.24-.34.6-1.6,1.44-2.15,2-1.1,1.71-3.01,2.8-4.17,4.8l-1.49.22.06-2.02.96-.71.38-1.69,2.21-2.1.94-2.18.69-.57.02-1.24-3.33-.06-.44-1.64.35-1.45,1.76-.57,2.23-.06,1.06,1.02Z"/>
      <path d="M110.92,80.12l.66.66,2.06.37.39,2.05-.27,1.51-.78.81-.64,1.93-2.43,2.43-1.2.61-.54.75c-2,.26-1.49,2.08-3.12.15v-.71s3.76-3.39,3.76-3.39l1.08-1.62.4-1.42-.34-.74-2.37-.19-.9-.83-.07-2.47,2.01-.46,2.3.56Z"/>
      <polygon points="88.53 164.82 84.8 165.41 78.41 171.49 77.6 173.79 74.64 173.84 74.65 171.85 75.36 171.3 75.87 169.44 77.52 168.46 79.8 165.57 81.49 164.83 83.57 162.98 85.34 162.58 87.92 162.62 88.48 163.19 88.53 164.82"/>
      <path d="M806.59,24.6l.54.48.78,2.52c2.06.59,2.37,2.19,4.82,1.74l.28,1.84-2.28.65-2.85-.47-2.45-2.22-.63-2.39-1.24-1.21.21-1.65c.42-.72,2.57-.26,2.82.7Z"/>
      <path d="M989.53,17.77c.09.04.11.38.27.48,2.34.38.31,2.57-.44,3.78l-.1,3.98-.71.55-.63,2.31c-1.23,1.7-1.84.96-2.01-.84l.71-.54.43-2.06.73-.48v-.72s-.72-.49-.72-.49l-.31-1.5.24-1.8.74-.85.46-1.91,1.35.09Z"/>
      <polygon points="429.83 19.14 430.14 24.91 428.35 26.51 426.33 26.28 425.33 24.89 425.29 24.21 426.05 23.37 426.33 21.48 427.18 20.73 427.62 19.19 429.83 19.14"/>
      <path d="M343.1,33.79l-3.74.39-.18,2.26-2.24.37c-1.03-2.29-2.21-2.85-.39-5.3l5.6.02.88.62.06,1.64Z"/>
      <path d="M148.23,152.06l-.11,1.41-3.14,2.48c-1.21,3.3-2.48.19-3.89-1.1v-.9s1.95-.43,1.95-.43l.6-.68c1.56-.22,2.96-1.04,4.58-.79Z"/>
      <path d="M981.29,20.37l1.22,1.21-.75.45-.41,1.7-.71.55v1.74s.61.35.61.35l.12,1.02-2.62.39v-1.22s-.74-.55-.74-.55v-1.73s.72-.52.72-.52c.02-1.77.27-4.27,2.55-3.39Z"/>
      <path d="M1002.37,62.36l.02,1.6.74.26v.7c-.88-.09-.59.8-.84,1.05-.17.17-.62.07-.87.25-.21.15-.43,1.62-1.03-.02-2.1.05-.05-2.39-1.61-2.86l-.13-1.02,2.39-.23,1.33.26Z"/>
      <polygon points="186.48 159.24 186.51 161.17 185.64 162.04 184.04 162.56 182.94 162.22 182.75 160.89 183.24 159.28 184.48 158.84 186.48 159.24"/>
    </g>
  </g>
</svg>